<svg width="97" height="39" viewBox="0 0 97 39" version="1.1" xmlns="http://www.w3.org/2000/svg" xmlns:xlink="http://www.w3.org/1999/xlink">
<title>Light</title>
<desc>Created using Figma</desc>
<g id="Canvas" transform="translate(-9348 6819)">
<g id="logo/Light">
<use xlink:href="#path0_fill" transform="translate(9348 -6819)" fill="#FFFFFF"/>
</g>
</g>
<defs>
<path id="path0_fill" fill-rule="evenodd" d="M 3.362 30.75L 0 30.75L 0 0L 3.362 0L 3.362 30.75ZM 22.9565 7.83105C 26.1819 7.83105 28.922 8.99271 31.177 11.3161C 33.432 13.6394 34.5595 16.4274 34.5595 19.6801C 34.5595 22.9327 33.4457 25.7139 31.218 28.0236C 28.9903 30.3332 26.2365 31.4881 22.9565 31.4881C 19.6765 31.4881 16.9158 30.3332 14.6745 28.0236C 12.4332 25.7139 11.3125 22.9327 11.3125 19.6801C 11.3125 16.4274 12.44 13.6394 14.695 11.3161C 16.95 8.99271 19.7038 7.83105 22.9565 7.83105ZM 22.9559 28.2489C 25.2245 28.2489 27.1584 27.422 28.7574 25.7684C 30.3564 24.1147 31.1559 22.1194 31.1559 19.7824C 31.1559 17.4453 30.3427 15.4227 28.7164 13.7144C 27.09 12.006 25.163 11.1519 22.9354 11.1519C 20.7077 11.1519 18.7875 12.006 17.1749 13.7144C 15.5622 15.4227 14.7559 17.4522 14.7559 19.8029C 14.7559 22.1535 15.5349 24.1488 17.0929 25.7889C 18.6509 27.4289 20.6052 28.2489 22.9559 28.2489ZM 65.2641 25.5021C 65.2641 28.4541 65.0113 30.6407 64.5056 32.0621C 63.9999 33.4834 63.2346 34.6861 62.2096 35.6701C 61.1846 36.6541 59.9546 37.3989 58.5196 37.9046C 57.0846 38.4102 55.5061 38.6631 53.7841 38.6631C 47.9621 38.6631 44.0808 36.2031 42.1401 31.2831L 45.7481 31.2831C 47.3335 34.1257 49.9711 35.5471 53.6611 35.5471C 55.3558 35.5471 56.8728 35.2191 58.2121 34.5631C 59.5514 33.9071 60.4944 33.0324 61.0411 31.9391C 61.5878 30.8457 61.8611 29.1647 61.8611 26.8961L 61.8611 26.6911C 60.7951 27.8937 59.5105 28.8094 58.0071 29.4381C 56.5038 30.0667 54.9458 30.3811 53.3331 30.3811C 50.1078 30.3811 47.4086 29.2741 45.2356 27.0601C 43.0626 24.846 41.9898 22.2357 42.0171 19.2291C 41.9898 16.0857 43.1241 13.4002 45.4201 11.1726C 47.7161 8.94488 50.4426 7.83105 53.5996 7.83105C 56.7566 7.83105 59.5104 9.11571 61.8611 11.6851L 61.8611 8.40506L 65.2641 8.40506L 65.2641 25.5021ZM 61.9849 19.2288C 61.9849 16.8782 61.1991 14.9375 59.6274 13.4068C 58.0557 11.8762 56.1356 11.1108 53.8669 11.1108C 51.4615 11.1108 49.4457 11.9377 47.8194 13.5913C 46.193 15.245 45.3799 17.1652 45.3799 19.3518C 45.3799 21.5385 46.1589 23.3903 47.7169 24.9073C 49.2749 26.4243 51.2702 27.1828 53.7029 27.1828C 56.1356 27.1828 58.124 26.438 59.6684 24.9483C 61.2127 23.4587 61.9849 21.5522 61.9849 19.2288ZM 84.8588 7.83105C 88.0842 7.83105 90.8243 8.99271 93.0793 11.3161C 95.3344 13.6394 96.4618 16.4274 96.4618 19.6801C 96.4618 22.9327 95.348 25.7139 93.1203 28.0236C 90.8927 30.3332 88.1389 31.4881 84.8588 31.4881C 81.5788 31.4881 78.8182 30.3332 76.5768 28.0236C 74.3355 25.7139 73.2148 22.9327 73.2148 19.6801C 73.2148 16.4274 74.3423 13.6394 76.5973 11.3161C 78.8524 8.99271 81.6062 7.83105 84.8588 7.83105ZM 84.8592 28.2489C 87.1279 28.2489 89.0617 27.422 90.6607 25.7684C 92.2597 24.1147 93.0592 22.1194 93.0592 19.7824C 93.0592 17.4453 92.246 15.4227 90.6197 13.7144C 88.9933 12.006 87.0664 11.1519 84.8387 11.1519C 82.611 11.1519 80.6909 12.006 79.0782 13.7144C 77.4655 15.4227 76.6592 17.4522 76.6592 19.8029C 76.6592 22.1535 77.4382 24.1488 78.9962 25.7889C 80.5542 27.4289 82.5085 28.2489 84.8592 28.2489Z"/>
</defs>
</svg>
